REM DIRINDEX 1\4,1\2\5,1\2\6,1\3\7,1\3\8,1\3\9,1\3\10
REM DIRNAME folder01,folder02,folder03,folder04,folder05,folder06,folder07,folder08,folder09,folder10
TITLE ""
FILE "DISC2Track30.mp3" MP3
  TRACK 01 AUDIO
    TITLE "0:"
    INDEX 01 00:00:00
  TRACK 02 AUDIO
    TITLE "7:cjc107_1983"
    INDEX 01 00:00:01
  TRACK 03 AUDIO
    TITLE "0:"
    INDEX 01 00:02:73
  TRACK 04 AUDIO
    TITLE "8:cjc107_1984"
    INDEX 01 00:04:07
  TRACK 05 AUDIO
    TITLE "0:"
    INDEX 01 00:05:30
  TRACK 06 AUDIO
    TITLE "9:cjc107_1985"
    INDEX 01 00:05:38
  TRACK 07 AUDIO
    TITLE "0:"
    INDEX 01 00:07:64
  TRACK 08 AUDIO
    TITLE "8:cjc107_1986"
    INDEX 01 00:08:38
  TRACK 09 AUDIO
    TITLE "0:"
    INDEX 01 00:09:40
  TRACK 10 AUDIO
    TITLE "9:cjc107_1987"
    INDEX 01 00:09:44
  TRACK 11 AUDIO
    TITLE "0:"
    INDEX 01 00:10:55
  TRACK 12 AUDIO
    TITLE "8:cjc107_1988"
    INDEX 01 00:11:23
  TRACK 13 AUDIO
    TITLE "0:"
    INDEX 01 00:12:48
  TRACK 14 AUDIO
    TITLE "9:cjc107_1989"
    INDEX 01 00:12:65
  TRACK 15 AUDIO
    TITLE "0:"
    INDEX 01 00:16:00
  TRACK 16 AUDIO
    TITLE "8:cjc107_1990"
    INDEX 01 00:16:48
  TRACK 17 AUDIO
    TITLE "0:"
    INDEX 01 00:17:61
  TRACK 18 AUDIO
    TITLE "9:cjc107_1991"
    INDEX 01 00:17:63
  TRACK 19 AUDIO
    TITLE "0:"
    INDEX 01 00:19:05
  TRACK 20 AUDIO
    TITLE "8:cjc107_1992"
    INDEX 01 00:19:56
  TRACK 21 AUDIO
    TITLE "0:"
    INDEX 01 00:20:63
  TRACK 22 AUDIO
    TITLE "9:cjc107_1993"
    INDEX 01 00:20:67
  TRACK 23 AUDIO
    TITLE "0:"
    INDEX 01 00:22:05
  TRACK 24 AUDIO
    TITLE "8:cjc107_1994"
    INDEX 01 00:22:50
  TRACK 25 AUDIO
    TITLE "0:"
    INDEX 01 00:23:50
  TRACK 26 AUDIO
    TITLE "9:cjc107_1995"
    INDEX 01 00:23:53
  TRACK 27 AUDIO
    TITLE "0:"
    INDEX 01 00:26:26
  TRACK 28 AUDIO
    TITLE "8:cjc107_1996"
    INDEX 01 00:26:73
  TRACK 29 AUDIO
    TITLE "0:"
    INDEX 01 00:28:19
  TRACK 30 AUDIO
    TITLE "9:cjc107_1997"
    INDEX 01 00:28:21
  TRACK 31 AUDIO
    TITLE "0:"
    INDEX 01 00:29:48
  TRACK 32 AUDIO
    TITLE "8:cjc107_1998"
    INDEX 01 00:30:16
  TRACK 33 AUDIO
    TITLE "0:"
    INDEX 01 00:31:31
  TRACK 34 AUDIO
    TITLE "9:cjc107_1999"
    INDEX 01 00:31:39
  TRACK 35 AUDIO
    TITLE "0:"
    INDEX 01 00:32:62
  TRACK 36 AUDIO
    TITLE "8:cjc107_2000"
    INDEX 01 00:33:32
  TRACK 37 AUDIO
    TITLE "0:"
    INDEX 01 00:34:47
  TRACK 38 AUDIO
    TITLE "9:cjc107_2001"
    INDEX 01 00:34:49
  TRACK 39 AUDIO
    TITLE "0:"
    INDEX 01 00:36:36
  TRACK 40 AUDIO
    TITLE "8:cjc107_2002"
    INDEX 01 00:37:10
  TRACK 41 AUDIO
    TITLE "0:"
    INDEX 01 00:38:31
  TRACK 42 AUDIO
    TITLE "9:cjc107_2003"
    INDEX 01 00:38:39
  TRACK 43 AUDIO
    TITLE "0:"
    INDEX 01 00:40:26
  TRACK 44 AUDIO
    TITLE "8:cjc107_2004"
    INDEX 01 00:40:72
  TRACK 45 AUDIO
    TITLE "0:"
    INDEX 01 00:42:16
  TRACK 46 AUDIO
    TITLE "9:cjc107_2005"
    INDEX 01 00:42:19
  TRACK 47 AUDIO
    TITLE "0:"
    INDEX 01 00:43:19
  TRACK 48 AUDIO
    TITLE "8:cjc107_2006"
    INDEX 01 00:43:68
  TRACK 49 AUDIO
    TITLE "0:"
    INDEX 01 00:45:30
  TRACK 50 AUDIO
    TITLE "9:cjc107_2007"
    INDEX 01 00:45:39
  TRACK 51 AUDIO
    TITLE "0:"
    INDEX 01 00:46:72
  TRACK 52 AUDIO
    TITLE "8:cjc107_2008"
    INDEX 01 00:47:38
  TRACK 53 AUDIO
    TITLE "0:"
    INDEX 01 00:48:42
  TRACK 54 AUDIO
    TITLE "9:cjc107_2009"
    INDEX 01 00:48:46
  TRACK 55 AUDIO
    TITLE "0:"
    INDEX 01 00:49:63
  TRACK 56 AUDIO
    TITLE "8:cjc107_2010"
    INDEX 01 00:50:37
  TRACK 57 AUDIO
    TITLE "0:"
    INDEX 01 00:52:00
  TRACK 58 AUDIO
    TITLE "9:cjc107_2011"
    INDEX 01 00:52:10
  TRACK 59 AUDIO
    TITLE "0:"
    INDEX 01 00:54:38
  TRACK 60 AUDIO
    TITLE "10:cjc107_2012"
    INDEX 01 00:56:12
  TRACK 61 AUDIO
    TITLE "10:cjc107_2013"
    INDEX 01 01:00:27
  TRACK 62 AUDIO
    TITLE "10:cjc107_2014"
    INDEX 01 01:09:30
  TRACK 63 AUDIO
    TITLE "10:cjc107_2015"
    INDEX 01 01:16:63
  TRACK 64 AUDIO
    TITLE "10:cjc107_2016"
    INDEX 01 01:22:39
  TRACK 65 AUDIO
    TITLE "0:"
    INDEX 01 01:28:33
